<?xml version="1.0" encoding="iso-8859-1"?>
<!-- Generator: Adobe Illustrator 18.0.0, SVG Export Plug-In . SVG Version: 6.00 Build 0)  -->
<!DOCTYPE svg PUBLIC "-//W3C//DTD SVG 1.1//EN" "http://www.w3.org/Graphics/SVG/1.1/DTD/svg11.dtd">
<svg version="1.1" id="Capa_1" xmlns="http://www.w3.org/2000/svg" xmlns:xlink="http://www.w3.org/1999/xlink" x="0px" y="0px"
	 viewBox="0 0 56 56" style="enable-background:new 0 0 56 56;" xml:space="preserve">
<g>
	<path d="M52.953,37.101c-0.116-0.367-0.434-0.634-0.814-0.688l-7.777-1.089l-3.472-6.78c-0.342-0.668-1.438-0.668-1.779,0
		l-3.472,6.78l-7.777,1.089c-0.381,0.054-0.698,0.32-0.814,0.688s-0.012,0.768,0.269,1.031l5.605,5.267L31.6,50.825
		c-0.066,0.373,0.084,0.752,0.388,0.978c0.305,0.227,0.712,0.263,1.049,0.089L40,48.363l6.964,3.528
		C47.107,51.965,47.262,52,47.416,52c0.211,0,0.421-0.066,0.597-0.197c0.304-0.226,0.454-0.604,0.388-0.978l-1.321-7.427
		l5.605-5.267C52.965,37.868,53.069,37.468,52.953,37.101z M45.315,42.312c-0.246,0.231-0.359,0.571-0.3,0.903l1.064,5.987
		l-5.628-2.852c-0.143-0.072-0.297-0.108-0.452-0.108s-0.31,0.036-0.452,0.108l-5.628,2.852l1.064-5.987
		c0.06-0.332-0.054-0.672-0.3-0.903l-4.479-4.207l6.225-0.872c0.322-0.045,0.603-0.244,0.751-0.534L40,31.194l2.818,5.504
		c0.148,0.29,0.429,0.489,0.751,0.534l6.225,0.872L45.315,42.312z"/>
	<rect x="3" width="34" height="11"/>
	<path d="M18.221,34.298c0.116-0.367,0.434-0.634,0.814-0.688l13.99-1.959L37,23.888V13H3v41.443C3,55.302,3.699,56,4.559,56
		c0.412,0,0.801-0.162,1.091-0.452L20,41l7.866,7.975l0.737-4.145l-10.114-9.501C18.209,35.066,18.105,34.665,18.221,34.298z"/>
</g>
<g>
</g>
<g>
</g>
<g>
</g>
<g>
</g>
<g>
</g>
<g>
</g>
<g>
</g>
<g>
</g>
<g>
</g>
<g>
</g>
<g>
</g>
<g>
</g>
<g>
</g>
<g>
</g>
<g>
</g>
</svg>
