<?xml version="1.0" encoding="utf-8"?>
<!-- Generator: Adobe Illustrator 22.1.0, SVG Export Plug-In . SVG Version: 6.00 Build 0)  -->
<svg version="1.1" id="Capa_1" xmlns="http://www.w3.org/2000/svg" xmlns:xlink="http://www.w3.org/1999/xlink" x="0px" y="0px"
	 viewBox="0 0 57 57" style="enable-background:new 0 0 57 57;" xml:space="preserve">
<g>
	<path d="M53.5,37.8c-0.1-0.4-0.4-0.6-0.8-0.7L44.9,36l-3.5-6.8c-0.3-0.7-1.4-0.7-1.8,0L36.1,36l-7.8,1.1c-0.4,0.1-0.7,0.3-0.8,0.7
		s0,0.8,0.3,1l5.6,5.3l-1.3,7.4c-0.1,0.4,0.1,0.8,0.4,1c0.3,0.2,0.7,0.3,1,0.1l7-3.5l7,3.5c0.1,0.1,0.3,0.1,0.5,0.1s0.4-0.1,0.6-0.2
		c0.3-0.2,0.5-0.6,0.4-1l-1.3-7.4l5.6-5.3C53.5,38.5,53.6,38.1,53.5,37.8z M45.8,43c-0.2,0.2-0.4,0.6-0.3,0.9l1.1,6L41,47
		c-0.1-0.1-0.3-0.1-0.5-0.1s-0.3,0-0.5,0.1l-5.6,2.9l1.1-6c0.1-0.3-0.1-0.7-0.3-0.9l-4.5-4.2l6.2-0.9c0.3,0,0.6-0.2,0.8-0.5l2.8-5.5
		l2.8,5.5c0.1,0.3,0.4,0.5,0.8,0.5l6.2,0.9L45.8,43z"/>
	<rect x="3.5" y="0.7" width="34" height="11"/>
	<path d="M18.7,35c0.1-0.4,0.4-0.6,0.8-0.7l14-2l4-7.8V13.7h-34v41.4c0,0.9,0.7,1.6,1.6,1.6c0.4,0,0.8-0.2,1.1-0.5l14.3-14.5l7.9,8
		l0.7-4.1L19,36C18.7,35.7,18.6,35.3,18.7,35z"/>
</g>
</svg>
