<?xml version="1.0" encoding="utf-8"?>
<!-- Generator: Adobe Illustrator 22.1.0, SVG Export Plug-In . SVG Version: 6.00 Build 0)  -->
<svg version="1.1" id="Capa_1" xmlns="http://www.w3.org/2000/svg" xmlns:xlink="http://www.w3.org/1999/xlink" x="0px" y="0px"
	 viewBox="0 0 50.8 50.4" style="enable-background:new 0 0 50.8 50.4;" xml:space="preserve">
<style type="text/css">
	.st0{fill:#3498DB;}
</style>
<g>
	<g>
		<path class="st0" d="M25.4,0.4C11.7,0.4,0.6,11.5,0.6,25.2S11.7,50,25.4,50s24.8-11.1,24.8-24.8C50.2,11.5,39.1,0.4,25.4,0.4z
			 M39.1,23.4L39.1,23.4l-7.2,5.2l2.8,8.5c0,0.1,0.1,0.3,0.1,0.4c0,0.7-0.6,1.3-1.3,1.3c-0.3,0-0.6-0.1-0.8-0.3l-7.2-5.2l-7.2,5.2
			c-0.2,0.2-0.5,0.3-0.8,0.3c-0.7,0-1.3-0.6-1.3-1.3c0-0.1,0-0.3,0.1-0.4l2.8-8.5l-7.2-5.2l0,0c-0.3-0.2-0.6-0.6-0.6-1.1
			c0-0.7,0.6-1.3,1.3-1.3h8.9l2.8-8.4c0.2-0.5,0.7-0.9,1.3-0.9s1.1,0.4,1.3,0.9l2.8,8.4h8.9c0.7,0,1.3,0.6,1.3,1.3
			C39.7,22.7,39.4,23.1,39.1,23.4z"/>
	</g>
</g>
</svg>
